<svg xmlns="http://www.w3.org/2000/svg" width="28" height="28" fill="none" viewBox="0 0 28 28"><path fill="#000" d="M8.187 28C3.672 28 0 24.328 0 19.813V8.187C0 3.673 3.672 0 8.187 0h11.626C24.328 0 28 3.673 28 8.187v11.626C28 24.328 24.328 28 19.813 28zM2.61 8.187v11.626a5.583 5.583 0 0 0 5.577 5.577h11.626a5.583 5.583 0 0 0 5.576-5.577V8.187a5.583 5.583 0 0 0-5.576-5.577H8.187A5.583 5.583 0 0 0 2.61 8.187M6.763 14c0-3.99 3.246-7.237 7.237-7.237s7.237 3.246 7.237 7.237-3.246 7.237-7.237 7.237S6.763 17.991 6.763 14m2.61 0A4.63 4.63 0 0 0 14 18.627 4.63 4.63 0 0 0 18.627 14 4.63 4.63 0 0 0 14 9.372 4.63 4.63 0 0 0 9.373 14m10.364-7.467a1.744 1.744 0 1 1 3.488 0 1.744 1.744 0 0 1-3.488 0"/></svg>