<svg xmlns="http://www.w3.org/2000/svg" width="28" height="28" fill="none" viewBox="0 0 28 28"><path fill="#000" d="M11.812 28a14 14 0 0 1-8.416-4.718A14.13 14.13 0 0 1 0 14.085c0-3.762 1.456-7.299 4.1-9.96A13.87 13.87 0 0 1 14 0c3.74 0 7.255 1.465 9.9 4.126a14.04 14.04 0 0 1 4.1 9.96c0 3.377-1.206 6.643-3.396 9.196A13.98 13.98 0 0 1 16.189 28l-.001-9.842h3.261l.62-4.072h-3.881v-2.668c.006-.812.31-2.173 2.281-2.173h1.765V5.777c-.012-.001-1.616-.275-3.134-.275-3.31 0-5.288 2.049-5.288 5.48v3.103H8.258v4.072h3.554z"/></svg>