<svg xmlns="http://www.w3.org/2000/svg" width="28" height="23" fill="none" viewBox="0 0 28 23"><path fill="#000" d="M8.806 23C19.372 23 25.15 14.152 25.15 6.48q0-.378-.017-.75A11.8 11.8 0 0 0 28 2.722c-1.03.462-2.137.774-3.3.914A5.82 5.82 0 0 0 27.228.425a11.4 11.4 0 0 1-3.648 1.41A5.7 5.7 0 0 0 19.386 0c-3.172 0-5.745 2.6-5.745 5.806q0 .685.149 1.324C9.015 6.887 4.782 4.577 1.949 1.063a5.83 5.83 0 0 0-.778 2.919 5.82 5.82 0 0 0 2.556 4.833 5.66 5.66 0 0 1-2.602-.727v.074c0 2.813 1.98 5.16 4.608 5.693a5.7 5.7 0 0 1-2.594.1c.73 2.306 2.852 3.985 5.366 4.032a11.45 11.45 0 0 1-7.135 2.485q-.695 0-1.37-.08A16.14 16.14 0 0 0 8.806 23"/></svg>